# xmcd
# 
# Track frame offsets:
#     150
#     17589
#     27726
#     38783
#     51628
#     63385
#     82005
#     94593
#     103742
#     120354
#     130667
# 
# Disc length: 1936
# 
# Revision: 0
# Processed by: cddbd v1.5.2PL0 Copyright (c) Steve Scherf et al.
# Submitted via: fre:ac v1.0.27
# 
DISCID=90078e0b
DTITLE=KB Jay - Hometown Blues
DYEAR=2007
DGENRE=Blues
TTITLE0=On A Monday
TTITLE1=The red Rooster
TTITLE2=Sunday Street
TTITLE3=Don't Talk To Me
TTITLE4=Greasy Greens
TTITLE5=Hometown Blues
TTITLE6=Kindhearted Woman Blues
TTITLE7=Now I'm Broke
TTITLE8=Louis Collins
TTITLE9=I'm Going Away
TTITLE10=Vigilante Man
EXTD=
EXTT0=Huddie Ledbetter
EXTT1=Willie Dixon
EXTT2=Dave Van Ronk
EXTT3=K B Jay
EXTT4=Pink Anderson
EXTT5=K B Jay
EXTT6=R. Johnson
EXTT7=K B Jay
EXTT8=Mississippi John Hurt
EXTT9=Frank Stokes
EXTT10=Woody Guthrie
PLAYORDER=
